<svg xmlns="http://www.w3.org/2000/svg" viewBox="0 0 64 64" role="img" aria-label="Biblio">
  <rect width="64" height="64" rx="14" fill="#f6efe1"/>
  <svg x="9" y="9" width="46" height="46" viewBox="605 150 310 300" preserveAspectRatio="xMidYMid meet">
    <g transform="translate(0.000000,1076.000000) scale(0.100000,-0.100000)" fill="#2b1d12">
    <path d="M6399 9089 c-18 -18 -20 -28 -14 -69 4 -31 2 -62 -6 -84 -12 -32 -11
-38 17 -77 28 -42 29 -45 28 -168 -1 -156 -62 -451 -104 -506 -5 -5 -13 -29
-20 -53 -6 -24 -24 -54 -40 -69 -26 -22 -30 -33 -28 -72 1 -35 -5 -56 -25 -88
-14 -23 -32 -63 -38 -90 -7 -26 -35 -100 -62 -163 -27 -63 -60 -146 -74 -185
-14 -38 -45 -100 -70 -136 -51 -79 -81 -159 -123 -329 -17 -69 -37 -132 -44
-140 -33 -38 -24 -100 15 -100 11 0 35 12 54 26 32 24 42 45 50 114 5 39 13
65 31 105 14 33 57 141 109 275 18 47 46 117 62 155 17 39 49 115 72 170 45
105 51 120 100 227 17 37 31 71 31 77 0 5 7 22 15 38 9 15 19 40 24 54 7 19
19 28 43 33 18 3 38 14 45 25 9 15 87 344 107 456 3 17 12 64 20 105 8 41 15
102 16 135 1 107 20 123 115 89 22 -8 60 -17 84 -20 24 -2 49 -8 55 -12 6 -4
243 -7 527 -7 l516 0 36 -32 c38 -33 56 -38 171 -47 38 -3 74 -10 79 -15 5 -5
13 -64 18 -132 5 -68 11 -135 14 -149 2 -14 14 -83 25 -155 28 -175 64 -319
111 -444 21 -57 39 -109 39 -115 1 -6 9 -29 20 -51 11 -22 19 -44 20 -48 0 -5
11 -33 25 -63 37 -82 36 -84 -43 -84 -156 0 -312 -82 -312 -164 0 -57 -28 -66
-215 -66 -132 -1 -399 37 -535 76 -53 14 -160 40 -300 70 -167 37 -482 44
-605 14 -198 -49 -231 -91 -105 -133 30 -10 64 -26 76 -35 39 -30 219 -181
232 -194 35 -36 133 -160 166 -210 20 -31 64 -82 97 -112 32 -30 59 -58 59
-62 0 -3 26 -41 58 -83 83 -109 96 -133 136 -252 60 -178 77 -263 68 -346 -5
-40 -6 -81 -4 -90 11 -49 13 -509 3 -603 -6 -58 -18 -188 -26 -290 -7 -102
-20 -219 -28 -260 -9 -41 -18 -101 -21 -132 -3 -32 -10 -68 -15 -80 -19 -46
-24 -64 -28 -88 -2 -14 -10 -32 -17 -40 -7 -8 -25 -36 -40 -62 -50 -88 -78
-101 -214 -99 -250 2 -393 -31 -463 -106 -34 -36 -70 -134 -51 -140 6 -3 12
-15 12 -27 0 -44 20 -55 110 -62 101 -7 212 12 293 50 30 14 59 26 64 26 10 0
84 31 160 67 18 8 37 12 43 8 6 -4 50 -11 98 -15 48 -5 155 -16 237 -24 267
-27 386 -49 479 -90 116 -52 194 -32 142 36 -15 20 -163 98 -186 98 -8 0 -78
20 -155 45 -159 51 -315 90 -394 100 -105 12 -128 58 -59 115 10 8 46 83 79
165 65 162 67 172 115 540 14 110 32 243 40 295 25 159 27 208 10 299 -8 47
-17 130 -20 184 -8 145 -74 428 -111 477 -14 19 -17 63 -4 54 6 -3 3 11 -6 32
-9 21 -20 41 -24 44 -5 3 -21 32 -36 65 -43 98 -66 137 -111 189 -24 28 -57
75 -73 105 -16 31 -46 72 -66 91 -68 66 -153 167 -160 191 -4 11 -10 19 -15
19 -4 0 -20 19 -35 43 -15 23 -58 65 -96 92 -81 60 -91 75 -46 75 68 0 345
-31 402 -46 33 -8 83 -18 110 -23 28 -5 106 -20 175 -33 145 -27 642 -35 708
-11 44 16 41 11 -35 -67 -37 -38 -71 -78 -77 -88 -6 -11 -45 -57 -87 -103 -42
-46 -91 -102 -109 -124 -55 -65 -124 -135 -134 -135 -5 0 -18 -7 -27 -16 -12
-11 -44 -18 -91 -22 -154 -10 -193 -81 -114 -205 35 -55 38 -57 79 -57 57 0
89 18 110 63 25 54 54 50 212 -27 71 -35 146 -68 165 -74 19 -5 72 -26 118
-46 141 -61 518 -108 886 -110 298 -2 303 0 292 88 -4 28 -8 67 -9 86 -3 44
-11 58 -68 117 -55 59 -79 97 -113 188 -34 87 -109 263 -141 330 -40 82 -75
166 -97 230 -11 33 -23 65 -28 70 -11 14 -124 291 -161 395 -11 30 -26 69 -34
87 -8 17 -15 37 -15 45 0 30 -87 324 -105 352 -7 12 -20 55 -29 96 -10 41 -21
93 -26 115 -5 22 -14 63 -19 90 -5 28 -21 95 -35 150 -26 101 -33 175 -18 175
14 0 100 70 106 86 17 45 -55 129 -120 139 -61 9 -84 -6 -84 -54 0 -64 -21
-74 -137 -67 -54 3 -152 8 -218 11 -206 9 -547 49 -630 75 -33 10 -89 21 -125
25 -70 6 -240 35 -385 65 -49 10 -107 21 -127 25 -21 3 -57 15 -80 25 -54 25
-63 25 -89 -1z m2157 -1794 c17 -17 35 -46 39 -65 4 -19 20 -60 36 -90 36 -71
79 -165 79 -173 0 -4 11 -30 23 -59 27 -60 62 -152 72 -185 3 -13 31 -59 60
-103 30 -44 62 -95 70 -112 8 -18 26 -51 39 -73 26 -43 106 -196 106 -202 0
-10 -243 6 -305 20 -38 9 -97 16 -130 16 -68 0 -208 32 -305 69 -36 13 -94 30
-128 38 -75 16 -154 50 -237 104 -42 27 -100 50 -192 76 l-133 38 28 31 c25
26 116 141 177 223 19 25 106 121 183 200 17 19 32 37 32 41 0 4 17 26 38 49
41 46 75 62 129 62 82 0 243 108 243 162 0 19 2 18 23 -8 12 -16 36 -43 53
-59z"/>
    <path d="M5698 6657 c-31 -12 -43 -34 -28 -52 5 -6 7 -15 3 -18 -12 -12 -44
-7 -49 7 -24 62 -198 -34 -242 -133 -67 -147 -90 -309 -53 -368 41 -64 185
-52 299 27 64 43 72 55 72 100 0 16 14 55 30 87 17 31 30 64 30 71 0 16 59 10
70 -7 3 -4 19 -11 37 -14 18 -4 90 -29 160 -56 309 -120 571 -117 893 10 104
41 123 61 89 93 -23 23 -26 24 -74 10 -27 -8 -102 -19 -165 -24 -63 -5 -137
-16 -165 -24 -59 -18 -142 -21 -182 -5 -15 6 -57 17 -93 24 -205 41 -277 58
-295 71 -11 8 -42 32 -70 54 -52 42 -85 55 -170 66 -44 6 -47 7 -26 15 13 5
38 8 55 7 54 -3 73 24 40 56 -18 19 -122 20 -166 3z m-78 -241 c0 -31 -99
-186 -120 -186 -18 0 -21 58 -5 91 21 40 85 99 108 99 9 0 17 -2 17 -4z"/>
    <path d="M4086 5823 c-4 -5 -103 -10 -219 -14 -244 -6 -246 -7 -299 -88 -55
-83 -54 -130 5 -172 l42 -30 128 3 c120 3 130 5 147 26 l18 22 46 -31 c40 -26
46 -35 46 -66 0 -19 9 -71 21 -116 18 -69 20 -94 13 -157 -5 -41 -7 -124 -4
-185 2 -60 3 -153 2 -205 -2 -82 -1 -275 2 -525 2 -153 -119 -213 -365 -180
l-56 7 -36 -50 c-61 -83 -63 -166 -4 -202 39 -24 132 -27 200 -6 25 7 48 11
51 9 3 -3 153 -10 333 -14 180 -5 352 -11 382 -15 67 -8 119 7 153 43 66 72
64 205 -5 242 -20 11 -59 12 -179 7 -222 -10 -242 6 -218 175 9 58 10 112 5
156 -5 38 -10 111 -11 163 -2 52 -6 122 -10 156 -4 38 -2 75 5 97 10 29 10 44
0 70 -10 28 -9 56 2 143 8 60 13 160 11 222 -2 126 1 137 60 193 34 32 43 36
68 29 16 -5 47 -4 72 2 24 5 57 7 75 4 77 -12 191 64 177 118 -20 82 -53 141
-83 149 -16 4 -33 12 -36 17 -10 16 -58 11 -93 -10 -40 -25 -48 -25 -79 -1
-25 20 -50 18 -69 -5 -9 -11 -14 -10 -29 6 -22 24 -61 26 -73 3 -9 -15 -12
-15 -45 0 -35 17 -137 23 -151 10z"/>
    <path d="M8636 5823 c-4 -5 -106 -10 -226 -13 l-219 -5 -36 -35 c-107 -104
-112 -197 -11 -235 68 -26 266 -18 298 12 l23 22 27 -24 c15 -12 32 -25 40
-27 7 -3 14 -20 15 -39 4 -59 14 -112 30 -166 15 -48 15 -58 -1 -147 -12 -71
-14 -106 -7 -134 15 -55 18 -289 4 -345 -8 -36 -8 -91 -1 -200 18 -260 17
-272 -22 -312 -72 -74 -209 -105 -308 -70 -47 17 -52 17 -76 2 -47 -31 -79
-85 -84 -141 -10 -117 45 -142 238 -108 25 4 61 4 80 0 19 -4 132 -7 250 -6
119 1 278 -4 356 -12 77 -7 151 -10 165 -7 35 9 87 61 94 94 4 15 11 38 17 50
14 28 3 84 -22 116 -32 41 -77 50 -165 36 -105 -17 -211 -8 -238 20 -21 21
-22 31 -24 244 -1 122 -5 299 -8 392 -4 94 -7 186 -8 205 -1 19 4 79 11 132 7
54 12 144 13 200 1 122 2 127 56 173 l42 36 113 0 c108 1 115 2 166 32 34 21
52 38 52 51 0 10 7 24 16 30 13 10 11 20 -21 82 -33 64 -40 72 -83 87 -56 20
-76 21 -94 5 -39 -38 -44 -39 -72 -17 -21 16 -36 20 -62 16 -19 -3 -48 -1 -65
5 -24 8 -33 7 -48 -6 -22 -20 -40 -20 -65 -1 -21 16 -127 21 -140 8z"/>
    <path d="M2515 5808 c-44 -5 -184 -10 -312 -11 -247 -2 -263 -5 -296 -58 -17
-27 1 -89 29 -101 13 -6 24 -17 24 -23 0 -15 89 -55 122 -55 39 -1 84 -49 93
-100 5 -25 8 -151 8 -280 0 -129 0 -343 -1 -475 0 -132 1 -297 1 -366 2 -142
-16 -189 -85 -225 -96 -49 -153 -135 -120 -179 35 -48 29 -47 413 -51 381 -4
437 1 552 50 17 8 50 22 72 32 22 9 42 20 45 24 3 4 20 15 37 24 113 57 195
164 191 249 -2 43 1 50 27 67 41 27 43 34 34 145 -10 137 -21 171 -79 243 -92
114 -108 186 -60 267 70 119 120 254 120 325 0 37 -51 191 -75 230 -23 35 -90
100 -105 100 -4 0 -13 14 -20 30 -17 40 -62 77 -108 88 -259 63 -330 70 -507
50z m327 -252 c45 -13 107 -51 162 -100 26 -24 66 -135 66 -187 0 -46 -70
-152 -119 -180 -112 -64 -347 -78 -557 -34 -23 5 -27 27 -13 66 6 14 14 91 18
170 10 155 14 189 26 208 10 17 68 41 97 41 13 0 34 7 48 14 34 19 212 20 272
2z m10 -802 c65 -14 76 -19 101 -51 10 -13 23 -23 28 -23 9 0 48 -36 83 -77
40 -47 58 -235 28 -288 -79 -141 -195 -198 -427 -209 -66 -3 -131 -8 -145 -11
-47 -10 -119 14 -135 46 -18 34 -19 122 -3 200 9 46 9 69 -2 113 -11 48 -11
66 3 136 25 123 38 144 100 163 64 19 286 20 369 1z"/>
    <path d="M5405 5803 c-76 -10 -162 -12 -280 -9 -161 5 -173 4 -205 -16 -55
-32 -65 -70 -35 -128 16 -31 122 -90 162 -90 30 0 60 -31 85 -87 19 -42 19
-68 19 -561 0 -284 0 -552 0 -595 0 -125 -25 -168 -140 -237 -78 -46 -99 -110
-53 -161 30 -33 74 -41 167 -30 17 2 158 1 315 -3 l285 -8 104 31 c57 17 107
34 110 39 3 5 21 13 38 17 18 3 36 12 40 19 5 7 38 30 75 50 70 39 104 72 114
113 4 12 10 23 15 23 17 0 41 63 37 99 -4 30 0 40 30 68 l35 33 -6 109 c-6
109 -21 162 -63 209 -47 54 -67 88 -90 152 l-26 71 26 52 c15 29 40 72 56 97
78 119 87 300 22 438 -36 75 -54 98 -98 118 -18 9 -38 29 -44 45 -17 40 -72
86 -117 97 -21 6 -69 18 -108 27 -150 37 -283 43 -470 18z m454 -267 c74 -38
151 -115 151 -150 0 -15 4 -35 9 -44 27 -52 22 -86 -21 -158 -44 -73 -75 -104
-117 -117 -131 -39 -267 -48 -428 -27 -125 16 -131 19 -114 57 7 15 17 89 22
163 16 241 16 243 72 260 23 7 62 21 87 31 74 32 267 23 339 -15z m-21 -789
c45 -12 77 -27 83 -39 5 -10 15 -18 22 -18 7 0 32 -23 55 -50 39 -45 46 -62
63 -142 24 -117 24 -129 -7 -188 -73 -139 -201 -195 -467 -205 -245 -9 -254
-3 -247 155 3 63 4 164 1 245 -1 48 15 134 36 191 14 40 17 42 81 56 102 23
290 21 380 -5z"/>
    <path d="M10130 5795 c-47 -13 -125 -27 -175 -31 -66 -5 -101 -12 -130 -29
-22 -12 -53 -25 -68 -29 -15 -4 -32 -16 -36 -29 -5 -12 -32 -44 -60 -70 -59
-57 -97 -118 -117 -190 -8 -29 -18 -59 -21 -67 -8 -20 -7 -16 -22 -85 -7 -33
-20 -82 -29 -110 -24 -79 -8 -451 25 -540 8 -22 16 -76 18 -120 2 -49 12 -104
25 -140 12 -33 27 -83 34 -110 17 -65 38 -103 75 -138 16 -15 32 -36 36 -46 3
-10 27 -29 53 -43 34 -18 49 -32 56 -55 5 -21 19 -37 40 -47 17 -8 51 -24 76
-36 25 -11 57 -28 72 -36 18 -10 83 -18 190 -26 l163 -11 45 27 c25 15 52 31
60 36 8 4 35 15 60 24 25 9 65 33 90 54 111 92 123 118 62 136 -34 9 -46 28
-12 19 38 -10 69 6 84 42 10 23 22 35 34 35 34 0 66 75 78 186 4 33 13 71 20
86 8 15 14 58 14 97 0 41 8 95 20 133 24 76 25 177 4 268 -9 36 -19 90 -24
120 -4 30 -18 81 -29 114 -15 41 -19 70 -15 98 9 55 -21 136 -73 201 -24 28
-50 66 -58 82 -7 17 -32 45 -54 63 -22 18 -47 44 -56 60 -62 105 -282 157
-455 107z m200 -305 c156 -36 186 -61 226 -190 10 -30 30 -91 46 -135 46 -125
62 -290 50 -494 -14 -228 -46 -347 -111 -422 -17 -18 -43 -48 -58 -66 -21 -23
-37 -32 -61 -32 -18 -1 -54 -13 -78 -27 -73 -43 -179 -33 -260 24 -33 23 -63
42 -67 42 -23 0 -125 99 -147 143 -17 34 -35 54 -56 63 -43 18 -84 99 -84 167
0 29 -4 67 -9 85 -6 18 -10 70 -10 115 1 45 0 104 0 132 -1 27 5 70 13 95 8
25 17 77 21 115 12 143 12 143 80 246 39 60 62 85 115 118 l65 42 140 -6 c77
-3 160 -10 185 -15z"/>
  </g>
  <g transform="translate(0.000000,1076.000000) scale(0.100000,-0.100000)" fill="var(--logo-ink, #f6efe1)">
    <path d="M4315 3390 c-83 -13 -136 -66 -133 -136 2 -53 -7 -64 -57 -69 -70 -6
-66 -48 7 -58 22 -3 44 -11 49 -18 11 -18 5 -257 -7 -269 -5 -5 -34 -13 -63
-17 -59 -9 -84 -31 -63 -56 16 -18 304 -16 327 3 41 34 5 70 -69 70 -55 0 -55
-1 -53 160 2 116 3 125 22 128 54 8 65 13 65 32 0 21 -28 40 -59 40 -26 0 -38
42 -22 76 10 22 63 54 90 54 19 0 41 -32 41 -59 0 -59 68 -92 105 -51 72 79
-46 190 -180 170z"/>
    <path d="M3153 3364 c-10 -16 -16 -43 -14 -74 1 -53 -16 -80 -50 -80 -11 0
-34 -7 -51 -16 l-32 -17 32 -28 c20 -18 44 -29 61 -29 46 0 52 -17 36 -95 -22
-105 -14 -168 28 -209 9 -10 17 -23 17 -29 1 -35 51 -51 123 -39 96 17 102 22
127 103 24 79 21 99 -12 99 -30 0 -79 -45 -72 -65 18 -45 -73 -64 -101 -21
-14 21 -35 150 -35 214 0 45 42 72 113 72 44 0 68 5 76 14 16 19 -13 36 -61
36 -82 1 -145 34 -133 69 9 24 -7 110 -21 115 -8 3 -21 -6 -31 -20z"/>
    <path d="M5785 3380 c-31 -4 -41 -10 -43 -27 -4 -26 29 -47 64 -40 47 9 76
-49 53 -105 -13 -31 -27 -34 -94 -16 -110 30 -203 -36 -225 -160 -27 -150 71
-282 209 -282 20 0 51 9 69 20 39 24 49 25 68 5 16 -15 71 -20 112 -9 35 10
25 46 -15 56 -45 12 -47 24 -48 295 0 148 -4 246 -10 251 -13 12 -90 19 -140
12z m25 -268 c70 -35 77 -184 12 -254 -54 -58 -159 -43 -188 27 -7 18 -18 36
-22 39 -12 7 -2 105 13 136 25 49 55 64 130 68 11 1 36 -7 55 -16z"/>
    <path d="M7648 3382 c-24 -2 -42 -10 -48 -21 -14 -27 18 -52 62 -49 49 3 58
-7 58 -61 0 -65 -16 -79 -76 -63 -81 22 -124 13 -192 -38 -59 -44 -82 -183
-42 -257 11 -21 20 -43 20 -49 0 -32 114 -94 175 -94 18 0 51 10 74 22 38 20
42 20 59 5 19 -18 58 -21 111 -11 42 9 41 47 -1 52 -55 6 -58 23 -58 293 0
185 -3 249 -12 257 -15 11 -77 18 -130 14z m16 -267 c56 -24 72 -69 55 -158
-21 -115 -105 -169 -185 -119 -102 65 -83 263 27 283 56 10 65 10 103 -6z"/>
    <path d="M8445 3380 c-31 -4 -41 -10 -43 -27 -4 -26 29 -47 64 -40 33 6 51
-11 57 -53 10 -76 -12 -91 -98 -68 -110 30 -203 -36 -225 -160 -27 -150 71
-282 209 -282 20 0 51 9 69 20 39 24 55 25 72 5 13 -16 48 -19 99 -9 43 9 40
44 -5 56 -50 13 -54 34 -54 304 0 187 -3 246 -12 248 -27 9 -95 12 -133 6z
m17 -264 c19 -8 40 -21 47 -30 34 -41 18 -181 -26 -228 -57 -60 -161 -43 -191
33 -8 21 -18 39 -23 39 -4 0 -5 19 -2 43 13 116 41 146 144 156 9 0 32 -5 51
-13z"/>
    <path d="M10315 3366 c-25 -18 -13 -43 24 -51 51 -11 53 -19 54 -232 2 -217
-3 -240 -53 -249 -48 -10 -50 -59 -4 -70 32 -8 156 5 172 18 21 18 13 36 -19
47 -29 10 -31 14 -25 43 8 40 43 78 71 78 43 0 98 -115 65 -135 -18 -11 -10
-45 13 -54 27 -11 177 -9 195 2 37 24 -10 77 -68 77 -22 0 -40 4 -40 9 0 5
-25 41 -55 80 -30 39 -55 80 -55 90 0 41 92 120 125 107 25 -9 85 14 85 33 0
36 -28 40 -175 28 -38 -3 -40 -4 -43 -41 -3 -40 -87 -136 -118 -136 -15 0 -21
94 -15 230 3 88 -9 116 -56 129 -49 14 -55 14 -78 -3z"/>
    <path d="M9389 3349 c-45 -45 1 -121 65 -105 27 7 51 55 42 84 -13 40 -75 53
-107 21z"/>
    <path d="M2143 3199 c-55 -19 -63 -26 -78 -61 -21 -54 -5 -92 43 -96 43 -4 62
12 62 53 0 37 14 53 56 60 52 10 123 -50 110 -92 -8 -25 -117 -63 -182 -63
-80 0 -113 -30 -128 -116 -6 -38 24 -91 60 -104 44 -17 155 -12 201 10 42 19
42 19 81 -3 34 -18 43 -19 69 -8 32 13 60 58 45 73 -10 10 -42 0 -42 -13 0 -5
-6 -9 -14 -9 -18 0 -36 101 -36 204 0 93 -16 128 -69 156 -61 30 -108 33 -178
9z m203 -224 c10 -26 -6 -79 -34 -113 -35 -42 -93 -57 -157 -41 -119 30 -82
118 59 138 35 5 73 14 83 20 26 15 43 13 49 -4z"/>
    <path d="M6443 3201 c-69 -25 -70 -26 -83 -67 -18 -53 2 -94 44 -94 45 0 59
13 65 61 6 40 9 44 43 52 66 16 142 -53 112 -100 -12 -20 -90 -43 -167 -49
-69 -6 -105 -26 -123 -71 -22 -52 -17 -89 15 -125 39 -44 155 -53 234 -19 l49
21 25 -20 c14 -11 36 -20 48 -20 29 0 75 37 75 60 0 27 -18 35 -39 16 -21 -19
-41 -21 -42 -3 -14 312 -16 317 -104 358 -50 23 -86 23 -152 0z m197 -253 c0
-94 -89 -155 -188 -128 -121 32 -70 139 66 140 20 1 51 7 67 15 49 22 55 19
55 -27z"/>
    <path d="M2845 3199 c-16 -5 -54 -19 -83 -30 l-52 -21 -18 21 c-24 30 -165 28
-170 -3 -5 -25 14 -36 64 -36 52 0 54 -5 54 -162 0 -141 -3 -146 -95 -160 -12
-2 -20 -11 -20 -23 0 -27 218 -36 229 -10 5 13 10 14 27 4 17 -9 23 -8 30 2
12 19 -19 49 -50 49 -43 0 -51 12 -56 86 -6 86 12 130 75 180 53 42 90 46 90
8 0 -46 17 -64 60 -64 52 0 68 26 50 81 -23 68 -74 98 -135 78z"/>
    <path d="M7072 3190 c-20 -10 -46 -27 -56 -39 -26 -29 -40 -27 -53 8 -19 52
-133 57 -133 6 0 -19 8 -28 34 -39 47 -20 50 -28 52 -146 1 -127 -5 -146 -46
-155 -26 -6 -31 -11 -28 -33 4 -31 27 -40 111 -41 98 -2 127 32 62 70 -24 14
-35 28 -35 44 0 50 -12 83 -33 89 -17 4 -19 8 -10 17 9 9 16 9 29 -2 16 -12
17 -12 11 4 -23 60 104 170 179 155 30 -5 55 -66 47 -113 -4 -22 -6 -75 -4
-117 l2 -77 -38 -3 c-56 -5 -61 -43 -6 -57 36 -9 167 0 180 12 11 12 -10 47
-29 47 -26 0 -73 36 -55 43 9 3 12 38 12 128 0 170 -17 199 -123 212 -18 2
-49 -4 -70 -13z"/>
    <path d="M9050 3198 c-19 -5 -57 -19 -83 -31 l-49 -21 -17 22 c-23 31 -163 30
-169 -2 -5 -24 14 -36 61 -36 50 0 55 -17 56 -163 1 -113 0 -116 -25 -136 -15
-12 -39 -21 -55 -21 -25 0 -64 -38 -42 -41 80 -11 228 -6 239 9 10 14 14 14
28 3 21 -18 30 -8 22 24 -5 20 -12 25 -39 25 -52 0 -60 11 -64 87 -4 85 13
127 72 177 58 48 95 49 95 3 0 -42 15 -57 57 -57 73 0 75 98 3 148 -36 24 -39
24 -90 10z"/>
    <path d="M10018 3200 c-14 -4 -45 -22 -67 -40 -38 -31 -61 -33 -61 -5 0 38
-104 62 -130 30 -18 -21 -5 -44 34 -60 42 -18 46 -34 45 -168 -1 -117 -2 -120
-44 -134 -39 -13 -43 -54 -5 -64 32 -9 128 -11 158 -3 33 9 28 45 -11 69 -27
17 -33 29 -40 73 -6 34 -13 52 -23 52 -8 0 -14 7 -14 15 0 18 12 19 28 3 9 -9
12 -5 12 20 0 44 77 129 126 138 87 16 101 -9 98 -186 l-1 -115 -37 -3 c-42
-4 -57 -26 -33 -50 17 -16 116 -20 178 -7 40 9 37 45 -4 56 -39 11 -60 29 -48
43 6 7 10 45 11 86 0 41 1 82 2 90 8 68 -46 160 -95 160 -14 0 -31 2 -39 4 -7
2 -25 1 -40 -4z"/>
    <path d="M4618 3188 c-44 -12 -113 -76 -122 -116 -20 -77 -16 -168 7 -202 27
-41 103 -95 159 -114 37 -13 59 -13 124 -1 34 7 124 102 125 133 1 15 3 58 5
96 4 79 -22 142 -63 152 -13 4 -23 13 -23 21 0 36 -125 54 -212 31z m172 -83
c22 -11 32 -26 40 -58 5 -23 14 -54 19 -69 6 -17 6 -30 0 -34 -5 -3 -9 -13 -9
-23 0 -9 -19 -36 -43 -59 -67 -66 -142 -57 -213 27 -47 56 -43 150 8 197 35
31 43 34 103 34 39 0 78 -6 95 -15z"/>
    <path d="M5151 3188 c-89 -25 -139 -100 -143 -215 -2 -81 27 -140 82 -163 16
-7 36 -20 46 -31 9 -10 26 -19 36 -19 11 0 27 -4 36 -9 67 -36 212 54 227 142
23 128 2 217 -57 245 -16 7 -28 19 -28 26 0 30 -124 46 -199 24z m163 -79 c26
-12 40 -39 55 -106 13 -62 3 -93 -46 -140 -67 -65 -129 -59 -209 20 -51 52
-44 172 14 217 29 23 143 28 186 9z"/>
    <path d="M9308 3182 c-88 -6 -87 -61 2 -64 25 -1 59 2 75 6 57 13 64 -3 67
-151 3 -166 4 -163 -112 -163 -91 0 -110 -9 -86 -41 25 -34 95 -45 112 -18 3
5 29 9 57 9 29 0 76 9 106 20 46 18 56 19 70 7 28 -24 82 -39 97 -26 40 33
-24 79 -109 79 -51 0 -57 2 -62 23 -6 27 -15 174 -15 239 1 70 -49 90 -202 80z"/>
    <path d="M3554 2976 c-37 -16 -44 -32 -44 -97 0 -53 18 -79 63 -89 39 -10 32
-38 -24 -89 -45 -41 -51 -52 -45 -75 10 -40 56 -36 92 9 61 73 73 93 94 155
23 68 21 127 -6 137 -7 3 -14 13 -14 22 0 41 -55 53 -116 27z"/>
    <path d="M5342 2268 c-14 -14 -15 -57 -2 -78 8 -12 10 -9 10 12 0 45 45 75 67
46 5 -7 11 -57 12 -111 2 -96 1 -97 -24 -107 -59 -22 -5 -40 74 -24 37 8 39
16 9 29 -21 9 -24 20 -30 104 -8 100 -2 121 33 121 13 0 19 -7 19 -21 0 -28
19 -61 31 -54 12 8 12 51 -1 76 -13 23 -176 29 -198 7z"/>
    <path d="M5681 2272 c-11 -8 -10 -14 3 -34 25 -39 11 -214 -18 -222 -37 -10
-4 -25 42 -19 46 6 51 14 24 41 -13 13 -18 29 -14 50 4 30 7 32 43 32 36 0 38
-2 44 -37 12 -73 15 -82 36 -88 24 -8 51 12 47 34 -2 9 -12 16 -23 16 -29 0
-46 87 -22 113 22 24 21 61 -2 91 -19 25 -132 42 -160 23z m130 -32 c44 -24 8
-80 -53 -80 -38 0 -38 0 -38 39 0 22 5 42 13 44 21 9 58 7 78 -3z"/>
    <path d="M6338 2273 c-22 -5 -24 -23 -3 -23 23 0 38 -46 70 -207 3 -17 13 -37
21 -44 24 -19 39 6 58 96 27 120 35 143 57 150 40 13 21 35 -29 35 -57 0 -68
-7 -46 -31 15 -17 15 -24 -2 -96 -11 -43 -23 -78 -29 -78 -5 0 -17 34 -26 75
-16 69 -16 76 -1 93 26 29 -13 45 -70 30z"/>
    <path d="M6670 2265 c-14 -16 -6 -21 40 -27 24 -3 25 -5 28 -97 3 -101 -3
-118 -46 -123 -15 -2 -26 -7 -24 -13 3 -15 164 -13 169 2 3 7 -9 13 -29 15
l-33 3 0 104 0 105 32 8 c23 6 31 13 27 23 -9 21 -146 21 -164 0z"/>
    <path d="M7346 2271 c-66 -14 -96 -145 -52 -230 40 -77 145 -68 177 15 24 65
5 170 -38 203 -26 22 -37 23 -87 12z m61 -37 c44 -12 62 -155 23 -194 -57 -57
-139 21 -124 118 10 68 42 92 101 76z"/>
    <path d="M6006 2261 c-3 -5 1 -14 9 -21 21 -17 21 -187 0 -216 -21 -32 -10
-35 89 -28 100 8 106 11 106 67 0 47 -17 48 -26 2 -7 -40 -26 -48 -90 -43 -38
3 -39 4 -39 42 0 53 28 71 56 37 25 -31 28 -27 22 37 -6 54 -17 67 -26 31 -11
-41 -52 -21 -52 26 l0 40 55 6 c61 7 80 -2 80 -37 0 -13 5 -24 10 -24 11 0 14
49 4 74 -7 18 -188 24 -198 7z"/>
    <path d="M6998 2253 c-61 -38 -27 -108 58 -124 79 -15 94 -42 48 -84 -48 -45
-124 -24 -124 33 0 12 -4 22 -10 22 -5 0 -10 -22 -10 -49 l0 -48 50 -7 c151
-20 207 135 57 159 -50 9 -67 20 -67 46 0 48 87 49 110 2 l13 -28 7 25 c4 14
4 34 0 45 -10 28 -93 32 -132 8z"/>
    <path d="M5020 2150 c-25 -25 -25 -45 1 -71 34 -34 96 0 83 45 -13 46 -52 58
-84 26z"/>
    <path d="M7737 2152 c-24 -27 -21 -59 8 -78 53 -35 105 44 53 80 -29 21 -41
20 -61 -2z"/>
  </g>
  </svg>
</svg>
