<svg xmlns="http://www.w3.org/2000/svg" viewBox="0 0 64 64" role="img" aria-label="Biblio">
  <rect width="64" height="64" rx="14" fill="#f6efe1"/>
  <svg x="11" y="7" width="42" height="50" viewBox="578 165 340 521" preserveAspectRatio="xMidYMid meet"><g transform="translate(0.000000,1076.000000) scale(0.100000,-0.100000)" fill="#2b1d12"><path d="M6399 9089 c-18 -18 -20 -28 -14 -69 4 -31 2 -62 -6 -84 -12 -32 -11
-38 17 -77 28 -42 29 -45 28 -168 -1 -156 -62 -451 -104 -506 -5 -5 -13 -29
-20 -53 -6 -24 -24 -54 -40 -69 -26 -22 -30 -33 -28 -72 1 -35 -5 -56 -25 -88
-14 -23 -32 -63 -38 -90 -7 -26 -35 -100 -62 -163 -27 -63 -60 -146 -74 -185
-14 -38 -45 -100 -70 -136 -51 -79 -81 -159 -123 -329 -17 -69 -37 -132 -44
-140 -33 -38 -24 -100 15 -100 11 0 35 12 54 26 32 24 42 45 50 114 5 39 13
65 31 105 14 33 57 141 109 275 18 47 46 117 62 155 17 39 49 115 72 170 45
105 51 120 100 227 17 37 31 71 31 77 0 5 7 22 15 38 9 15 19 40 24 54 7 19
19 28 43 33 18 3 38 14 45 25 9 15 87 344 107 456 3 17 12 64 20 105 8 41 15
102 16 135 1 107 20 123 115 89 22 -8 60 -17 84 -20 24 -2 49 -8 55 -12 6 -4
243 -7 527 -7 l516 0 36 -32 c38 -33 56 -38 171 -47 38 -3 74 -10 79 -15 5 -5
13 -64 18 -132 5 -68 11 -135 14 -149 2 -14 14 -83 25 -155 28 -175 64 -319
111 -444 21 -57 39 -109 39 -115 1 -6 9 -29 20 -51 11 -22 19 -44 20 -48 0 -5
11 -33 25 -63 37 -82 36 -84 -43 -84 -156 0 -312 -82 -312 -164 0 -57 -28 -66
-215 -66 -132 -1 -399 37 -535 76 -53 14 -160 40 -300 70 -167 37 -482 44
-605 14 -198 -49 -231 -91 -105 -133 30 -10 64 -26 76 -35 39 -30 219 -181
232 -194 35 -36 133 -160 166 -210 20 -31 64 -82 97 -112 32 -30 59 -58 59
-62 0 -3 26 -41 58 -83 83 -109 96 -133 136 -252 60 -178 77 -263 68 -346 -5
-40 -6 -81 -4 -90 11 -49 13 -509 3 -603 -6 -58 -18 -188 -26 -290 -7 -102
-20 -219 -28 -260 -9 -41 -18 -101 -21 -132 -3 -32 -10 -68 -15 -80 -19 -46
-24 -64 -28 -88 -2 -14 -10 -32 -17 -40 -7 -8 -25 -36 -40 -62 -50 -88 -78
-101 -214 -99 -250 2 -393 -31 -463 -106 -34 -36 -70 -134 -51 -140 6 -3 12
-15 12 -27 0 -44 20 -55 110 -62 101 -7 212 12 293 50 30 14 59 26 64 26 10 0
84 31 160 67 18 8 37 12 43 8 6 -4 50 -11 98 -15 48 -5 155 -16 237 -24 267
-27 386 -49 479 -90 116 -52 194 -32 142 36 -15 20 -163 98 -186 98 -8 0 -78
20 -155 45 -159 51 -315 90 -394 100 -105 12 -128 58 -59 115 10 8 46 83 79
165 65 162 67 172 115 540 14 110 32 243 40 295 25 159 27 208 10 299 -8 47
-17 130 -20 184 -8 145 -74 428 -111 477 -14 19 -17 63 -4 54 6 -3 3 11 -6 32
-9 21 -20 41 -24 44 -5 3 -21 32 -36 65 -43 98 -66 137 -111 189 -24 28 -57
75 -73 105 -16 31 -46 72 -66 91 -68 66 -153 167 -160 191 -4 11 -10 19 -15
19 -4 0 -20 19 -35 43 -15 23 -58 65 -96 92 -81 60 -91 75 -46 75 68 0 345
-31 402 -46 33 -8 83 -18 110 -23 28 -5 106 -20 175 -33 145 -27 642 -35 708
-11 44 16 41 11 -35 -67 -37 -38 -71 -78 -77 -88 -6 -11 -45 -57 -87 -103 -42
-46 -91 -102 -109 -124 -55 -65 -124 -135 -134 -135 -5 0 -18 -7 -27 -16 -12
-11 -44 -18 -91 -22 -154 -10 -193 -81 -114 -205 35 -55 38 -57 79 -57 57 0
89 18 110 63 25 54 54 50 212 -27 71 -35 146 -68 165 -74 19 -5 72 -26 118
-46 141 -61 518 -108 886 -110 298 -2 303 0 292 88 -4 28 -8 67 -9 86 -3 44
-11 58 -68 117 -55 59 -79 97 -113 188 -34 87 -109 263 -141 330 -40 82 -75
166 -97 230 -11 33 -23 65 -28 70 -11 14 -124 291 -161 395 -11 30 -26 69 -34
87 -8 17 -15 37 -15 45 0 30 -87 324 -105 352 -7 12 -20 55 -29 96 -10 41 -21
93 -26 115 -5 22 -14 63 -19 90 -5 28 -21 95 -35 150 -26 101 -33 175 -18 175
14 0 100 70 106 86 17 45 -55 129 -120 139 -61 9 -84 -6 -84 -54 0 -64 -21
-74 -137 -67 -54 3 -152 8 -218 11 -206 9 -547 49 -630 75 -33 10 -89 21 -125
25 -70 6 -240 35 -385 65 -49 10 -107 21 -127 25 -21 3 -57 15 -80 25 -54 25
-63 25 -89 -1z m2157 -1794 c17 -17 35 -46 39 -65 4 -19 20 -60 36 -90 36 -71
79 -165 79 -173 0 -4 11 -30 23 -59 27 -60 62 -152 72 -185 3 -13 31 -59 60
-103 30 -44 62 -95 70 -112 8 -18 26 -51 39 -73 26 -43 106 -196 106 -202 0
-10 -243 6 -305 20 -38 9 -97 16 -130 16 -68 0 -208 32 -305 69 -36 13 -94 30
-128 38 -75 16 -154 50 -237 104 -42 27 -100 50 -192 76 l-133 38 28 31 c25
26 116 141 177 223 19 25 106 121 183 200 17 19 32 37 32 41 0 4 17 26 38 49
41 46 75 62 129 62 82 0 243 108 243 162 0 19 2 18 23 -8 12 -16 36 -43 53
-59z"/></g></svg>
</svg>
